<svg t="1594612354655" class="icon" viewBox="0 0 1024 1024" version="1.1" xmlns="http://www.w3.org/2000/svg" p-id="3003" width="32" height="32"><path d="M928 448.145V448h-0.003c-0.005-9.163-3.922-18.258-11.511-24.583l-384-320c-0.042-0.035-0.086-0.066-0.128-0.101-0.337-0.279-0.68-0.549-1.026-0.812-0.078-0.059-0.155-0.119-0.234-0.177a31.687 31.687 0 0 0-1.073-0.764c-0.088-0.06-0.175-0.121-0.263-0.18-0.34-0.227-0.684-0.445-1.03-0.658-0.121-0.074-0.242-0.15-0.363-0.223a31.53 31.53 0 0 0-0.927-0.528c-0.169-0.093-0.338-0.188-0.508-0.278-0.26-0.137-0.522-0.267-0.785-0.396a30.438 30.438 0 0 0-0.681-0.33c-0.206-0.096-0.414-0.185-0.622-0.276a32.374 32.374 0 0 0-0.863-0.368c-0.154-0.062-0.309-0.119-0.463-0.179a32.699 32.699 0 0 0-1.03-0.381c-0.111-0.038-0.222-0.073-0.334-0.11-0.388-0.13-0.776-0.255-1.167-0.369l-0.237-0.066c-0.42-0.119-0.84-0.232-1.263-0.333l-0.203-0.046a30.518 30.518 0 0 0-1.297-0.276c-0.077-0.015-0.154-0.026-0.231-0.04a30.331 30.331 0 0 0-1.266-0.207c-0.111-0.016-0.222-0.027-0.333-0.042-0.387-0.05-0.774-0.097-1.161-0.134-0.165-0.016-0.331-0.025-0.497-0.038a33.294 33.294 0 0 0-0.996-0.067c-0.234-0.011-0.468-0.014-0.702-0.02-0.264-0.006-0.527-0.015-0.791-0.015-0.307 0-0.613 0.009-0.92 0.018-0.191 0.005-0.382 0.008-0.573 0.016-0.374 0.017-0.747 0.045-1.12 0.075-0.124 0.01-0.249 0.017-0.373 0.029-0.426 0.039-0.851 0.09-1.275 0.147-0.074 0.01-0.148 0.017-0.221 0.028-0.458 0.064-0.914 0.14-1.369 0.224l-0.129 0.022a33.31 33.31 0 0 0-1.389 0.296l-0.113 0.025c-0.447 0.107-0.892 0.226-1.336 0.352-0.056 0.016-0.112 0.03-0.169 0.047a32.4 32.4 0 0 0-1.23 0.388l-0.272 0.09c-0.362 0.125-0.721 0.26-1.08 0.399-0.139 0.054-0.279 0.106-0.418 0.161a32.03 32.03 0 0 0-0.901 0.384c-0.196 0.086-0.392 0.171-0.586 0.26-0.237 0.11-0.473 0.227-0.708 0.343-0.255 0.126-0.51 0.252-0.762 0.385-0.174 0.092-0.347 0.189-0.52 0.284-0.309 0.17-0.616 0.344-0.92 0.525-0.121 0.072-0.241 0.148-0.362 0.222-0.348 0.214-0.694 0.433-1.035 0.661-0.085 0.057-0.169 0.116-0.254 0.174-0.365 0.249-0.727 0.506-1.083 0.771l-0.221 0.168c-0.352 0.267-0.7 0.542-1.042 0.825-0.039 0.032-0.08 0.061-0.119 0.094l-384 320c-7.59 6.325-11.506 15.42-11.511 24.583H96V832c0 52.935 43.065 96 96 96h192c17.673 0 32-14.327 32-32V704c0-52.935 43.065-96 96-96s96 43.065 96 96v192c0 17.673 14.327 32 32 32h192c52.935 0 96-43.065 96-96V448.188v-0.043zM832 864H672V704c0-88.225-71.775-160-160-160-88.224 0-160 71.775-160 160v160H192c-17.645 0-32-14.355-32-32V462.988l352-293.333 352 293.334V832c0 17.645-14.355 32-32 32z" p-id="3004" fill="#ffffff"></path></svg>