<svg t="1594623644219" class="icon" viewBox="0 0 1024 1024" version="1.1" xmlns="http://www.w3.org/2000/svg" p-id="2744" width="32" height="32"><path d="M800 64H224c-52.935 0-96 43.065-96 96v704c0 52.935 43.065 96 96 96h576c52.935 0 96-43.065 96-96V160c0-52.935-43.065-96-96-96z m32 800c0 17.645-14.355 32-32 32H224c-17.645 0-32-14.355-32-32V160c0-17.645 14.355-32 32-32h576c17.645 0 32 14.355 32 32v704z" p-id="2745" fill="#ffffff"></path><path d="M672 256H352c-17.673 0-32 14.327-32 32s14.327 32 32 32h320c17.673 0 32-14.327 32-32s-14.327-32-32-32zM544 480H352c-17.673 0-32 14.327-32 32 0 17.673 14.327 32 32 32h192c17.673 0 32-14.327 32-32 0-17.673-14.327-32-32-32z" p-id="2746" fill="#ffffff"></path></svg>